<?xml version="1.0" encoding="UTF-8"?>
<svg width="248px" height="290px" viewBox="0 0 248 290" version="1.1" xmlns="http://www.w3.org/2000/svg" xmlns:xlink="http://www.w3.org/1999/xlink">
    <title>编组 21</title>
    <defs>
        <linearGradient x1="50%" y1="0%" x2="50%" y2="98.5629849%" id="linearGradient-1">
            <stop stop-color="#FFCA81" offset="0%"></stop>
            <stop stop-color="#EC8B3F" offset="100%"></stop>
        </linearGradient>
        <filter x="-15.3%" y="-150.0%" width="130.5%" height="400.0%" filterUnits="objectBoundingBox" id="filter-2">
            <feGaussianBlur stdDeviation="3" in="SourceGraphic"></feGaussianBlur>
        </filter>
        <linearGradient x1="50%" y1="0%" x2="50%" y2="98.5629849%" id="linearGradient-3">
            <stop stop-color="#FFCA81" offset="0%"></stop>
            <stop stop-color="#EC8B3F" offset="100%"></stop>
        </linearGradient>
        <linearGradient x1="81.5319131%" y1="61.6887391%" x2="19.5602671%" y2="51.3867884%" id="linearGradient-4">
            <stop stop-color="#FFFFFF" stop-opacity="0.5" offset="0%"></stop>
            <stop stop-color="#000000" stop-opacity="0.5" offset="100%"></stop>
        </linearGradient>
        <polygon id="path-5" points="80 11 76 33.548424 117.54065 45 111.166667 29 124.833333 21.8642773"></polygon>
        <polygon id="path-6" points="4 11 0 33.548424 41.5406504 45 35.1666667 29 48.8333333 21.8642773"></polygon>
        <linearGradient x1="50%" y1="0%" x2="50%" y2="98.5629849%" id="linearGradient-7">
            <stop stop-color="#FFCA81" offset="0%"></stop>
            <stop stop-color="#EC8B3F" offset="100%"></stop>
        </linearGradient>
        <linearGradient x1="50%" y1="0%" x2="50%" y2="98.5629849%" id="linearGradient-8">
            <stop stop-color="#FFCA81" offset="0%"></stop>
            <stop stop-color="#EC8B3F" offset="100%"></stop>
        </linearGradient>
        <linearGradient x1="50%" y1="0%" x2="50%" y2="98.5629849%" id="linearGradient-9">
            <stop stop-color="#FFCA81" offset="0%"></stop>
            <stop stop-color="#FFA159" offset="100%"></stop>
        </linearGradient>
        <path d="M0.836,6.156 L9.766,4.332 L10.374,0 L1.444,1.824 L0.836,6.156 Z M29.602,27.36 L27.36,21.166 L30.4,20.178 L30.97,16.188 L26.144,17.746 L24.966,14.44 L30.704,14.44 L32.642,0.722 L11.704,0.722 L7.942,27.36 L18.924,26.334 L19.456,22.724 L15.048,23.18 L16.264,14.44 L17.746,14.44 L22.382,27.36 L29.602,27.36 Z M25.384,6.156 L17.442,6.156 L17.708,4.332 L25.65,4.332 L25.384,6.156 Z M6.498,27.36 L8.93,10.108 L9.538,5.776 L0.646,7.6 L0.038,11.932 L2.242,11.476 L0,27.36 L6.498,27.36 Z M24.738,10.83 L16.796,10.83 L17.024,9.044 L24.966,9.044 L24.738,10.83 Z M67.526,11.096 L67.944,8.246 L59.546,8.246 L59.622,7.562 L67.298,7.562 L68.172,1.102 L60.534,1.102 L60.686,0.038 L54.682,0.038 L55.594,0.988 L55.556,1.102 L47.918,1.102 L47.044,7.562 L54.682,7.562 L54.568,8.246 L46.208,8.246 L45.79,11.096 L67.526,11.096 Z M45.372,5.054 L43.814,0.722 L38.038,0.722 L39.596,5.054 L45.372,5.054 Z M62.586,5.32 L59.926,5.32 L60.23,3.192 L62.89,3.192 L62.586,5.32 Z M54.986,5.32 L52.364,5.32 L52.668,3.192 L55.29,3.192 L54.986,5.32 Z M40.888,26.714 L41.458,25.612 L45.22,26.714 L66.158,26.714 L66.614,23.484 L48.222,23.484 L46.702,22.914 L51.756,22.914 L55.48,20.102 L58.786,22.876 L65.816,22.876 L58.444,17.708 L58.824,15.124 L53.39,15.124 L53.048,17.328 L45.296,22.382 L43.054,21.546 L45.106,6.992 L37.202,6.992 L36.632,10.83 L38.304,10.83 L36.632,22.952 L34.39,26.714 L40.888,26.714 Z M48.45,19.646 L50.92,18.088 L51.414,14.326 L60.952,14.326 L60.458,18.088 L62.662,19.646 L65.588,19.646 L66.69,11.818 L46.436,11.818 L45.334,19.646 L48.45,19.646 Z M85.31,17.29 L87.818,5.168 L94.24,5.168 L94.962,11.78 L94.202,12.35 L93.556,16.758 L95.342,15.39 L95.57,17.252 L101.65,17.252 L102.22,13.148 L101.042,14.364 L99.598,14.364 L99.37,12.388 L101.308,10.906 L101.916,6.498 L98.952,8.74 L98.534,5.168 L102.714,5.168 L103.17,1.9 L102.486,1.9 L102.296,0.38 L98.838,0.38 L99.066,1.9 L98.154,1.9 L97.964,0 L93.1,0 L93.784,0.76 L93.898,1.9 L83.068,1.9 L83.752,3.23 L80.94,17.29 L85.31,17.29 Z M76.798,26.714 L80.522,0.038 L74.518,0.038 L75.316,1.634 L71.82,26.714 L76.798,26.714 Z M72.01,19.798 L74.404,5.548 L71.896,5.548 L69.35,19.798 L72.01,19.798 Z M81.548,12.73 L82.536,5.548 L80.332,5.548 L79.306,12.73 L81.548,12.73 Z M93.784,8.854 L94.126,6.232 L87.97,6.232 L87.628,8.854 L93.784,8.854 Z M93.1,16.834 L94.088,9.728 L87.286,9.728 L86.298,16.834 L93.1,16.834 Z M90.554,14.478 L89.414,14.478 L89.756,12.084 L90.896,12.084 L90.554,14.478 Z M94.696,22.496 L94.886,17.974 L90.744,17.974 L90.592,22.496 L94.696,22.496 Z M95.532,26.714 L96.178,21.964 L95.038,23.408 L89.338,23.408 L90.098,18.05 L85.12,18.05 L83.904,26.714 L95.532,26.714 Z M82.764,26.638 L84.436,18.696 L80.446,18.696 L78.774,26.638 L82.764,26.638 Z M100.358,26.714 L100.51,18.772 L96.634,18.772 L96.482,26.714 L100.358,26.714 Z M113.962,28.348 L117.344,20.368 L112.29,20.368 L109.63,28.348 L113.962,28.348 Z M161.842,27.284 L163.704,13.984 L165.338,13.984 L167.086,25.688 L174.306,25.688 L172.558,13.984 L175.256,13.984 L175.788,10.298 L164.198,10.298 L164.654,7.03 L174.8,7.03 L175.294,3.42 L165.148,3.42 L165.642,0.038 L157.13,0.038 L158.232,1.558 L157.966,3.42 L148.01,3.42 L147.516,7.03 L157.434,7.03 L156.978,10.298 L145.464,10.298 L144.932,13.984 L147.592,13.984 L142.652,25.688 L149.872,25.688 L154.812,13.984 L156.484,13.984 L154.622,27.284 L161.842,27.284 Z M195.548,27.36 L196.916,17.67 L208.468,17.67 L210.216,5.434 L198.626,5.434 L199.424,0 L190.76,0 L191.976,1.444 L191.406,5.434 L179.892,5.434 L178.144,17.67 L189.696,17.67 L188.328,27.36 L195.548,27.36 Z M201.78,14.06 L197.41,14.06 L198.132,9.044 L202.464,9.044 L201.78,14.06 Z M190.19,14.06 L185.896,14.06 L186.58,9.044 L190.912,9.044 L190.19,14.06 Z M239.666,14.402 L245.746,6.498 L246.43,1.444 L237.766,1.444 L238.678,0 L230.736,0 L231.534,0.95 L227.962,6.46 L234.688,6.46 L235.562,5.054 L239.552,5.054 L235.676,10.792 L235.22,10.792 L234.346,7.182 L228.456,7.182 L229.33,10.792 L227.772,10.792 L227.24,14.402 L239.666,14.402 Z M214.434,14.44 L219.716,12.54 L219.488,14.364 L226.252,14.364 L228.266,0 L220.21,0 L221.274,1.52 L221.046,3.04 L216.182,2.128 L215.612,6.118 L220.476,7.03 L220.324,8.322 L215.042,10.222 L214.434,14.44 Z M220.818,27.36 L228.38,20.672 L234.27,27.36 L243.618,27.36 L236.93,20.216 L243.922,20.216 L244.416,16.606 L232.978,16.606 L234.612,15.162 L225.644,15.162 L224.01,16.606 L214.092,16.606 L213.598,20.216 L219.906,20.216 L211.85,27.36 L220.818,27.36 Z" id="path-10"></path>
        <filter x="-0.2%" y="-1.8%" width="100.8%" height="107.1%" filterUnits="objectBoundingBox" id="filter-11">
            <feOffset dx="1" dy="1" in="SourceAlpha" result="shadowOffsetOuter1"></feOffset>
            <feColorMatrix values="0 0 0 0 0.798581331   0 0 0 0 0.356732604   0 0 0 0 0.168414609  0 0 0 0.957835378 0" type="matrix" in="shadowOffsetOuter1"></feColorMatrix>
        </filter>
    </defs>
    <g id="页面-1" stroke="none" stroke-width="1" fill="none" fill-rule="evenodd">
        <g id="未中奖" transform="translate(-57.000000, -245.000000)">
            <g id="编组-21" transform="translate(57.140000, 245.982000)">
                <g id="编组-18" transform="translate(58.860000, 257.018000)">
                    <rect id="矩形" fill="url(#linearGradient-1)" fill-rule="nonzero" x="0" y="0" width="134" height="32" rx="8"></rect>
                    <text id="我知道了" font-family="PingFangSC-Regular, PingFang SC" font-size="14" font-weight="normal" fill="#8B5311">
                        <tspan x="39" y="21">我知道了</tspan>
                    </text>
                </g>
                <g id="编组-17" transform="translate(41.860000, 194.018000)">
                    <ellipse id="椭圆形" fill="#FFFFFF" cx="84" cy="10.5" rx="84" ry="10.5"></ellipse>
                    <ellipse id="椭圆形" fill="#806969" filter="url(#filter-2)" cx="83.5" cy="8" rx="29.5" ry="3"></ellipse>
                </g>
                <g id="编组-20" transform="translate(60.026667, 193.018000)">
                    <g id="编组-19" fill-rule="nonzero">
                        <g id="路径-34">
                            <use fill="url(#linearGradient-3)" xlink:href="#path-5"></use>
                            <use fill-opacity="0.6" fill="url(#linearGradient-4)" style="mix-blend-mode: multiply;" xlink:href="#path-5"></use>
                        </g>
                        <g id="路径-34备份" transform="translate(24.416667, 28.000000) scale(-1, 1) translate(-24.416667, -28.000000) ">
                            <use fill="url(#linearGradient-3)" xlink:href="#path-6"></use>
                            <use fill-opacity="0.6" fill="url(#linearGradient-4)" style="mix-blend-mode: multiply;" xlink:href="#path-6"></use>
                        </g>
                        <path d="M61.8475255,0 C75.6547203,0 90.6344805,2.74821834 106.799888,8.20146593 L107.833333,8.5532188 L102.427212,38 C87.5515112,32.8918616 74.020304,30.3607949 61.8475255,30.3607949 C50.0327686,30.3607949 37.6596021,32.7458042 24.7152116,37.5489242 L23.7670415,37.904688 L17.8333333,8.64853077 C33.0007145,2.8947046 47.6767036,0 61.8475255,0 Z" id="路径-33" fill="url(#linearGradient-7)"></path>
                    </g>
                    <text id="谢谢参与" font-family="PingFangSC-Regular, PingFang SC" font-size="14" font-weight="normal" fill="#FFFFFF">
                        <tspan x="34.8333333" y="23">谢谢参与</tspan>
                    </text>
                </g>
                <path d="M128.86,91.018 C105.663369,91.018 86.86,109.821472 86.86,133.018 C86.86,156.214631 105.663369,175.018 128.86,175.018 C152.056631,175.018 170.86,156.214631 170.86,133.018 C170.86,109.821472 152.056631,91.018 128.86,91.018 Z M143.103422,159.97886 C138.098204,153.405331 130.235517,153.218352 129.359911,153.218352 C121.00979,153.218352 116.144946,159.288156 115.616401,159.97886 C114.740898,161.124411 113.080893,161.360269 111.91607,160.498845 C110.75166,159.63742 110.512332,158.004403 111.387525,156.858446 C111.850273,156.249138 113.592911,154.103961 116.492007,152.096986 C120.348928,149.431927 124.800914,148.018 129.359911,148.018 C130.136254,148.018 132.919868,148.099295 136.289355,149.17981 C140.774498,150.618024 144.598263,153.267231 147.332298,156.858446 C148.207904,158.004403 147.968163,159.63742 146.803753,160.498845 C145.638929,161.360269 143.978924,161.124411 143.103422,159.97886 Z M108.859739,120.018 C112.17674,120.018 114.86,122.701179 114.86,126.017792 C114.86,129.334404 112.17674,132.018 108.859739,132.018 C105.543156,132.018 102.86,129.334404 102.86,126.017792 C102.86,122.701179 105.543156,120.018 108.859739,120.018 Z M148.860261,132.018 C145.543573,132.018 142.86,129.334404 142.86,126.017792 C142.86,122.701179 145.543573,120.018 148.860261,120.018 C152.176844,120.018 154.86,122.701179 154.86,126.017792 C154.86,129.334404 152.176844,132.018 148.860261,132.018 Z" id="Fill-1" fill="url(#linearGradient-8)" fill-rule="nonzero"></path>
                <g id="编组-16" fill-rule="nonzero">
                    <g id="很遗憾，未中奖">
                        <use fill="black" fill-opacity="1" filter="url(#filter-11)" xlink:href="#path-10"></use>
                        <use fill="#EF4242" xlink:href="#path-10"></use>
                        <use fill="url(#linearGradient-9)" xlink:href="#path-10"></use>
                    </g>
                </g>
            </g>
        </g>
    </g>
</svg>